<svg width="708" height="484" viewBox="0 0 708 484" fill="none" xmlns="http://www.w3.org/2000/svg">
<g clip-path="url(#clip0_4307_29337)">
<rect width="708" height="484" fill="white"/>
<path d="M177.936 17.0604L438.49 277.615L455.461 260.645L194.906 0.0898461L177.936 17.0604Z" fill="#2B1D5C"/>
<path d="M160.965 34.031L421.52 294.586L438.49 277.615L177.936 17.0604L160.965 34.031Z" fill="#6D58B4"/>
<path d="M143.995 51.0015L404.549 311.556L421.52 294.586L160.965 34.031L143.995 51.0015Z" fill="#2B1D5C"/>
<path d="M127.024 67.9721L387.579 328.527L404.549 311.556L143.995 51.0015L127.024 67.9721Z" fill="#6D58B4"/>
<path d="M110.053 84.9426L370.608 345.497L387.579 328.527L127.024 67.9721L110.053 84.9426Z" fill="#2B1D5C"/>
<path d="M93.0829 101.913L353.638 362.468L370.608 345.497L110.053 84.9427L93.0829 101.913Z" fill="#6D58B4"/>
<path d="M757.092 -74.9065L438.468 243.718L455.438 260.688L774.062 -57.9359L757.092 -74.9065Z" fill="#2B1D5C"/>
<path d="M740.121 -91.877L421.497 226.747L438.468 243.718L757.092 -74.9065L740.121 -91.877Z" fill="#6D58B4"/>
<path d="M723.151 -108.848L404.527 209.777L421.497 226.747L740.121 -91.877L723.151 -108.848Z" fill="#2B1D5C"/>
<path d="M706.18 -125.818L387.556 192.806L404.527 209.777L723.151 -108.848L706.18 -125.818Z" fill="#6D58B4"/>
<path d="M689.21 -142.789L370.585 175.835L387.556 192.806L706.18 -125.818L689.21 -142.789Z" fill="#2B1D5C"/>
<path d="M672.239 -159.759L353.615 158.865L370.585 175.835L689.21 -142.789L672.239 -159.759Z" fill="#6D58B4"/>
<path d="M364.064 541.943L-98.4357 79.4427L-115.406 96.4132L347.094 558.913L364.064 541.943Z" fill="#2B1D5C"/>
<path d="M381.035 524.972L-81.4652 62.4721L-98.4358 79.4426L364.064 541.943L381.035 524.972Z" fill="#51C1B2"/>
<path d="M398.005 508.002L-64.4945 45.5016L-81.4651 62.4721L381.035 524.972L398.005 508.002Z" fill="#2B1D5C"/>
<path d="M414.976 491.031L-47.5241 28.531L-64.4946 45.5015L398.005 508.002L414.976 491.031Z" fill="#51C1B2"/>
<path d="M431.947 474.06L-30.5534 11.5604L-47.5239 28.531L414.976 491.031L431.947 474.06Z" fill="#2B1D5C"/>
<path d="M448.917 457.09L-13.5829 -5.41017L-30.5535 11.5604L431.947 474.06L448.917 457.09Z" fill="#51C1B2"/>
<path d="M690.084 195.087L337.084 548.087L354.055 565.057L707.055 212.057L690.084 195.087Z" fill="#2B1D5C"/>
<path d="M673.114 178.116L320.114 531.116L337.084 548.087L690.084 195.087L673.114 178.116Z" fill="#51C1B2"/>
<path d="M656.143 161.145L303.143 514.145L320.114 531.116L673.114 178.116L656.143 161.145Z" fill="#2B1D5C"/>
<path d="M639.173 144.175L286.172 497.175L303.143 514.145L656.143 161.145L639.173 144.175Z" fill="#51C1B2"/>
<path d="M622.202 127.204L269.202 480.204L286.172 497.175L639.172 144.175L622.202 127.204Z" fill="#2B1D5C"/>
<path d="M605.231 110.234L252.231 463.234L269.202 480.204L622.202 127.204L605.231 110.234Z" fill="#51C1B2"/>
<path d="M6.42628e-05 291C25.3452 291 50.4421 295.992 73.858 305.691C97.2738 315.39 118.55 329.607 136.472 347.528C154.393 365.45 168.61 386.726 178.309 410.142C188.008 433.558 193 458.655 193 484L3.21314e-05 484L6.42628e-05 291Z" fill="#DDE3E7"/>
<path d="M242 -1.19533e-05C242 29.7042 253.8 58.1919 274.804 79.1959C295.808 100.2 324.296 112 354 112C383.704 112 412.192 100.2 433.196 79.196C454.2 58.1919 466 29.7043 466 2.28882e-05L354 -2.16196e-06L242 -1.19533e-05Z" fill="#DDE3E7"/>
<circle cx="628" cy="404" r="80" fill="#DDE3E7"/>
</g>
<defs>
<clipPath id="clip0_4307_29337">
<rect width="708" height="484" fill="white"/>
</clipPath>
</defs>
</svg>
